<?xml version="1.0" encoding="utf-8"?>
<!-- Generator: Adobe Illustrator 17.0.1, SVG Export Plug-In . SVG Version: 6.00 Build 0)  -->
<!DOCTYPE svg PUBLIC "-//W3C//DTD SVG 1.1//EN" "http://www.w3.org/Graphics/SVG/1.1/DTD/svg11.dtd">
<svg version="1.1" id="Layer_4" xmlns="http://www.w3.org/2000/svg" xmlns:xlink="http://www.w3.org/1999/xlink" x="0px" y="0px"
	 width="1280px" height="800px" viewBox="0 0 1280 800" enable-background="new 0 0 1280 800" xml:space="preserve">
<slogan-web>
	<path fill="#FFFFFF" d="M385.281,490.925h-3.023l-7.84-27.141c-0.211-0.75-0.399-1.758-0.563-3.023h-0.176
		c-0.047,0.539-0.281,1.523-0.703,2.953l-8.789,27.211h-3.023l-10.863-36h3.586l8.367,28.723c0.211,0.75,0.375,1.758,0.492,3.023
		h0.281c0.047-0.68,0.269-1.688,0.668-3.023l9.141-28.723h2.215l8.156,28.723c0.188,0.68,0.352,1.688,0.492,3.023h0.281
		c0-0.68,0.199-1.688,0.598-3.023l8.543-28.723h3.34L385.281,490.925z"/>
	<path fill="#FFFFFF" d="M404.266,473.065c0,4.945,1.143,8.813,3.428,11.602s5.419,4.184,9.404,4.184
		c4.031,0,7.968-1.488,11.813-4.465v3.445c-3.727,2.648-7.887,3.973-12.48,3.973c-4.641,0-8.391-1.664-11.25-4.992
		c-2.86-3.328-4.289-8.027-4.289-14.098c0-5.25,1.494-9.674,4.482-13.271s6.873-5.396,11.654-5.396c4.477,0,7.91,1.57,10.301,4.711
		s3.586,7.43,3.586,12.867v1.441H404.266z M427.539,470.112c-0.141-4.148-1.137-7.371-2.988-9.668
		c-1.852-2.297-4.407-3.445-7.664-3.445c-3.375,0-6.17,1.131-8.385,3.393s-3.581,5.502-4.096,9.721H427.539z"/>
	<path fill="#FFFFFF" d="M443.219,484.526h-0.141v6.398h-3.234v-53.297h3.234v24.715h0.141c1.289-2.648,3.134-4.693,5.537-6.135
		c2.402-1.441,5.045-2.162,7.928-2.162c4.57,0,8.139,1.576,10.705,4.729s3.85,7.436,3.85,12.85c0,6.023-1.489,10.893-4.465,14.607
		c-2.977,3.715-6.844,5.572-11.602,5.572C449.781,491.804,445.797,489.378,443.219,484.526z M443.078,471.132v4.535
		c0,3.609,1.137,6.709,3.41,9.299c2.273,2.59,5.261,3.885,8.965,3.885c3.679,0,6.667-1.576,8.965-4.729
		c2.297-3.152,3.445-7.295,3.445-12.428c0-4.5-1.055-8.074-3.164-10.723s-4.922-3.973-8.438-3.973c-4.196,0-7.441,1.406-9.738,4.219
		C444.226,464.03,443.078,467.335,443.078,471.132z"/>
</slogan-web>
<slogan-design-experts>
	<path d="M519.088,490.924v-6.539h-0.141c-1.172,2.273-2.906,4.078-5.203,5.414c-2.297,1.336-4.887,2.004-7.77,2.004
		c-4.43,0-8.045-1.617-10.846-4.852c-2.801-3.234-4.201-7.699-4.201-13.395c0-5.813,1.529-10.518,4.588-14.115
		s7.025-5.396,11.9-5.396c5.391,0,9.234,2.215,11.531,6.645h0.141v-23.063h3.234v53.297H519.088z M519.088,469.021
		c0-3.352-1.061-6.193-3.182-8.525c-2.122-2.332-4.975-3.498-8.561-3.498c-3.774,0-6.891,1.447-9.352,4.342
		s-3.691,6.873-3.691,11.936c0,4.969,1.107,8.807,3.322,11.514s5.068,4.061,8.561,4.061c4.101,0,7.277-1.271,9.527-3.814
		s3.375-5.643,3.375-9.299V469.021z"/>
	<path d="M534.627,473.064c0,4.945,1.143,8.813,3.428,11.602s5.419,4.184,9.404,4.184c4.031,0,7.968-1.488,11.813-4.465v3.445
		c-3.727,2.648-7.887,3.973-12.48,3.973c-4.641,0-8.391-1.664-11.25-4.992c-2.86-3.328-4.289-8.027-4.289-14.098
		c0-5.25,1.494-9.674,4.482-13.271s6.873-5.396,11.654-5.396c4.477,0,7.91,1.57,10.301,4.711s3.586,7.43,3.586,12.867v1.441H534.627
		z M557.9,470.111c-0.141-4.148-1.137-7.371-2.988-9.668c-1.852-2.297-4.407-3.445-7.664-3.445c-3.375,0-6.17,1.131-8.385,3.393
		s-3.581,5.502-4.096,9.721H557.9z"/>
	<path d="M568.342,489.342v-3.902c1.218,1.055,2.695,1.887,4.43,2.496c1.734,0.609,3.234,0.914,4.5,0.914
		c5.648,0,8.473-2.309,8.473-6.926c0-1.594-0.621-2.953-1.863-4.078c-1.243-1.125-3.258-2.285-6.047-3.48
		c-3.445-1.5-5.866-3.053-7.26-4.658c-1.395-1.605-2.092-3.557-2.092-5.854c0-2.93,1.119-5.297,3.357-7.102
		c2.238-1.805,4.998-2.707,8.279-2.707c3.094,0,5.742,0.633,7.945,1.898v3.656c-2.672-1.734-5.438-2.602-8.297-2.602
		c-2.368,0-4.277,0.615-5.73,1.846c-1.454,1.23-2.18,2.83-2.18,4.799c0,1.711,0.457,3.1,1.371,4.166s2.93,2.291,6.047,3.674
		c3.75,1.688,6.328,3.252,7.734,4.693s2.109,3.357,2.109,5.748c0,2.859-1.072,5.221-3.217,7.084s-5.104,2.795-8.877,2.795
		C573.557,491.803,570.662,490.982,568.342,489.342z"/>
	<path d="M599.736,445.854c-0.703,0-1.324-0.258-1.863-0.773c-0.54-0.516-0.809-1.172-0.809-1.969c0-0.773,0.275-1.4,0.826-1.881
		c0.55-0.48,1.166-0.721,1.846-0.721c0.726,0,1.365,0.234,1.916,0.703c0.55,0.469,0.826,1.102,0.826,1.898
		c0,0.75-0.27,1.395-0.809,1.934C601.13,445.584,600.486,445.854,599.736,445.854z M598.154,490.924v-36h3.234v36H598.154z"/>
	<path d="M641.713,488.252c0,6.773-1.477,11.73-4.43,14.871s-7.547,4.711-13.781,4.711c-3.469,0-7.043-0.914-10.723-2.742v-3.375
		c3.797,2.109,7.395,3.164,10.793,3.164c9.937,0,14.906-5.25,14.906-15.75v-4.676h-0.141c-2.836,4.898-7.16,7.348-12.973,7.348
		c-4.43,0-8.045-1.605-10.846-4.816c-2.801-3.211-4.201-7.688-4.201-13.43s1.512-10.43,4.535-14.063s7.008-5.449,11.953-5.449
		c5.296,0,9.141,2.191,11.531,6.574h0.141v-5.695h3.234V488.252z M638.479,468.74c0-3.188-1.072-5.941-3.217-8.262
		s-4.939-3.48-8.385-3.48c-3.961,0-7.149,1.488-9.563,4.465c-2.414,2.977-3.621,6.914-3.621,11.813
		c0,4.922,1.107,8.748,3.322,11.479s5.138,4.096,8.771,4.096c3.867,0,6.949-1.254,9.246-3.762c2.297-2.508,3.445-5.578,3.445-9.211
		V468.74z"/>
	<path d="M677.713,490.924v-20.953c0-8.648-3.117-12.973-9.352-12.973c-3.469,0-6.316,1.271-8.543,3.814
		c-2.228,2.543-3.34,5.689-3.34,9.439v20.672h-3.234v-36h3.234v6.539h0.141c2.624-4.945,6.727-7.418,12.305-7.418
		c3.89,0,6.867,1.295,8.93,3.885c2.062,2.59,3.094,6.287,3.094,11.092v21.902H677.713z"/>
	<path d="M712.271,473.064c0,4.945,1.143,8.813,3.428,11.602s5.419,4.184,9.404,4.184c4.03,0,7.968-1.488,11.813-4.465v3.445
		c-3.727,2.648-7.888,3.973-12.48,3.973c-4.641,0-8.391-1.664-11.25-4.992c-2.86-3.328-4.289-8.027-4.289-14.098
		c0-5.25,1.494-9.674,4.482-13.271s6.873-5.396,11.654-5.396c4.477,0,7.91,1.57,10.301,4.711s3.586,7.43,3.586,12.867v1.441H712.271
		z M735.545,470.111c-0.141-4.148-1.138-7.371-2.988-9.668c-1.852-2.297-4.407-3.445-7.664-3.445c-3.375,0-6.17,1.131-8.385,3.393
		s-3.581,5.502-4.096,9.721H735.545z"/>
	<path d="M758.994,473.275l11.742,17.648h-4.113l-9.492-15.188h-0.141l-1.266,2.004c-0.164,0.281-0.364,0.598-0.598,0.949
		l-7.945,12.234h-3.938l12.023-17.578l-11.813-18.422h3.797l8.016,12.902c1.031,1.664,1.652,2.695,1.863,3.094h0.141l1.793-2.953
		l8.367-13.043h3.797L758.994,473.275z"/>
	<path d="M781.529,484.525h-0.141v22.957h-3.234v-52.559h3.234v7.418h0.141c1.289-2.648,3.135-4.693,5.537-6.135
		s5.045-2.162,7.928-2.162c4.57,0,8.139,1.576,10.705,4.729s3.85,7.436,3.85,12.85c0,6.023-1.471,10.893-4.412,14.607
		s-6.826,5.572-11.654,5.572C788.092,491.803,784.107,489.377,781.529,484.525z M781.389,471.131v4.535
		c0,3.609,1.137,6.709,3.41,9.299s5.262,3.885,8.965,3.885c3.68,0,6.668-1.576,8.965-4.729s3.445-7.295,3.445-12.428
		c0-4.5-1.055-8.074-3.164-10.723s-4.922-3.973-8.438-3.973c-4.195,0-7.441,1.406-9.738,4.219S781.389,467.334,781.389,471.131z"/>
	<path d="M819.252,473.064c0,4.945,1.143,8.813,3.428,11.602s5.42,4.184,9.404,4.184c4.031,0,7.969-1.488,11.813-4.465v3.445
		c-3.727,2.648-7.887,3.973-12.48,3.973c-4.641,0-8.391-1.664-11.25-4.992s-4.289-8.027-4.289-14.098
		c0-5.25,1.494-9.674,4.482-13.271s6.873-5.396,11.654-5.396c4.477,0,7.91,1.57,10.301,4.711s3.586,7.43,3.586,12.867v1.441H819.252
		z M842.525,470.111c-0.141-4.148-1.137-7.371-2.988-9.668s-4.406-3.445-7.664-3.445c-3.375,0-6.17,1.131-8.385,3.393
		s-3.58,5.502-4.096,9.721H842.525z"/>
	<path d="M871.811,458.299c-1.078-0.773-2.344-1.16-3.797-1.16c-2.836,0-5.215,1.465-7.137,4.395s-2.883,7.09-2.883,12.48v16.91
		h-3.164v-36h3.164v7.98h0.141c0.82-2.742,2.121-4.875,3.902-6.398s3.844-2.285,6.188-2.285c1.336,0,2.531,0.211,3.586,0.633
		V458.299z"/>
	<path d="M895.998,490.432c-1.688,0.797-3.27,1.195-4.746,1.195c-5.32,0-7.98-3.188-7.98-9.563v-24.188h-6.469v-2.953h6.469v-9.352
		c0.516-0.188,1.055-0.375,1.617-0.563c0.563-0.164,1.102-0.34,1.617-0.527v10.441h9.492v2.953h-9.492v23.766
		c0,2.484,0.393,4.283,1.178,5.396s2.115,1.67,3.99,1.67c1.336,0,2.777-0.434,4.324-1.301V490.432z"/>
	<path d="M901.271,489.342v-3.902c1.219,1.055,2.695,1.887,4.43,2.496s3.234,0.914,4.5,0.914c5.648,0,8.473-2.309,8.473-6.926
		c0-1.594-0.621-2.953-1.863-4.078s-3.258-2.285-6.047-3.48c-3.445-1.5-5.865-3.053-7.26-4.658s-2.092-3.557-2.092-5.854
		c0-2.93,1.119-5.297,3.357-7.102s4.998-2.707,8.279-2.707c3.094,0,5.742,0.633,7.945,1.898v3.656
		c-2.672-1.734-5.438-2.602-8.297-2.602c-2.367,0-4.277,0.615-5.73,1.846s-2.18,2.83-2.18,4.799c0,1.711,0.457,3.1,1.371,4.166
		s2.93,2.291,6.047,3.674c3.75,1.688,6.328,3.252,7.734,4.693s2.109,3.357,2.109,5.748c0,2.859-1.072,5.221-3.217,7.084
		s-5.104,2.795-8.877,2.795C906.486,491.803,903.592,490.982,901.271,489.342z"/>
</slogan-design-experts>
</svg>
